# xmcd
# 
# Track frame offsets:
#     150
#     14284
#     28041
#     41247
#     54193
#     67803
#     80703
#     95845
#     108297
#     120884
#     133153
#     143877
#     154180
#     165200
#     177518
#     188893
#     201735
#     213481
# 
# Disc length: 3004
# 
# Revision: 3
# Processed by: cddbd v1.5.2PL0 Copyright (c) Steve Scherf et al.
# Submitted via: fre:ac v1.0.31
# 
DISCID=fe0bba12
DTITLE=Bob Wills and His Texas Playboys - 1932-1947 [CD1]
DYEAR=0
DGENRE=Country
TTITLE0=Sunbonnet Sue
TTITLE1=Osage Stomp
TTITLE2=Spanish Two-Step
TTITLE3=Never No More Blues
TTITLE4=Get With It
TTITLE5=Who Walks In When I Walk Out?
TTITLE6=Sittin' On Top Of The World
TTITLE7=Steel Guitar Rag
TTITLE8=What's The Matter With The Mill?
TTITLE9=Playboy Stomp
TTITLE10=T For Texas
TTITLE11=Never No More Hard Time Blues
TTITLE12=Oozlin' Daddy Blues
TTITLE13=White Heat
TTITLE14=Steel Guitar Stomp
TTITLE15=Pray For The Lights To Go Out
TTITLE16=That's What I Like About The South
TTITLE17=I Wonder If You Feel The Way I Do
EXTD=
EXTT0=
EXTT1=
EXTT2=
EXTT3=
EXTT4=
EXTT5=
EXTT6=
EXTT7=
EXTT8=
EXTT9=
EXTT10=
EXTT11=
EXTT12=
EXTT13=
EXTT14=
EXTT15=
EXTT16=
EXTT17=
PLAYORDER=
